<?xml version="1.0" encoding="UTF-8"?>
<svg version="1.1" xmlns="http://www.w3.org/2000/svg" width="488" height="485">
<path d="M0 0 C161.04 0 322.08 0 488 0 C488 160.05 488 320.1 488 485 C326.96 485 165.92 485 0 485 C0 324.95 0 164.9 0 0 Z " fill="#FCFCFC" transform="translate(0,0)"/>
<path d="M0 0 C0.66 0.66 1.32 1.32 2 2 C1.40832031 2.15855469 0.81664062 2.31710938 0.20703125 2.48046875 C-5.96322631 4.30235557 -9.46971402 6.50579555 -13.3125 11.8125 C-14.9269991 16.94954259 -14.53987644 21.41510929 -12.375 26.25 C-10.18232516 30.10425196 -8.15195603 32.18823737 -4 34 C1.44088517 34.86298028 6.31024251 34.95891904 11 31.8125 C15.62441254 27.87400511 17.30049521 24.01574119 18 18 C20 19 20 19 21.0703125 21.5546875 C25.18706075 34.51482087 25.08996969 44.74046972 19.25 57.0625 C13.56493846 67.95316006 5.63064028 74.83052518 -6 79 C-19.31891609 81.64161581 -31.13908173 80.10228857 -42.61328125 72.7890625 C-49.95352422 67.28688365 -54.43562174 60.34451346 -58 52 C-58.36609375 51.24460938 -58.7321875 50.48921875 -59.109375 49.7109375 C-61.9111284 41.18279337 -60.91411331 29.70976213 -57.390625 21.55859375 C-50.36705637 8.63601664 -41.10730948 0.7582611 -27.01171875 -3.6171875 C-17.6400823 -5.40052803 -8.72625264 -3.5686466 0 0 Z " fill="#090A0C" transform="translate(265,182)"/>
<path d="M0 0 C2.79912004 0.02371721 5.59728812 0.02051559 8.39648438 0.01391602 C18.8365627 0.03048839 28.85345453 0.630358 39.16992188 2.33618164 C40.44134033 2.52720459 41.71275879 2.71822754 43.02270508 2.91503906 C51.74058114 4.29122202 56.89885786 7.23406863 63.16992188 13.33618164 C63.66218262 13.8025 64.15444336 14.26881836 64.66162109 14.74926758 C67.93265324 17.8500715 71.18025825 20.96002157 74.16992188 24.33618164 C74.16992188 24.99618164 74.16992188 25.65618164 74.16992188 26.33618164 C73.58146484 26.15514893 72.99300781 25.97411621 72.38671875 25.78759766 C65.85112137 23.79919708 59.28055881 21.99455983 52.66992188 20.27368164 C51.70183594 20.01780273 50.73375 19.76192383 49.73632812 19.49829102 C21.91919178 12.23596481 -8.84019164 11.46018409 -36.83007812 18.33618164 C-38.43678566 18.7023449 -40.04355608 19.06823239 -41.65039062 19.43383789 C-59.60436222 23.69229323 -76.59776652 30.63379301 -92.83007812 39.33618164 C-93.88243652 39.88846436 -93.88243652 39.88846436 -94.95605469 40.4519043 C-113.0280375 49.95437323 -129.88630201 61.52497609 -145.55664062 74.61352539 C-147.83007812 76.33618164 -147.83007812 76.33618164 -149.83007812 76.33618164 C-137.75394636 88.76045414 -121.28064659 100.61089741 -105.83007812 108.33618164 C-104.96044922 110.0703125 -104.96044922 110.0703125 -104.10351562 112.30102539 C-103.79414063 113.10088867 -103.48476562 113.90075195 -103.16601562 114.72485352 C-102.84890625 115.5659668 -102.53179687 116.40708008 -102.20507812 117.27368164 C-101.88023437 118.11092773 -101.55539063 118.94817383 -101.22070312 119.81079102 C-98.83007812 126.05353655 -98.83007812 126.05353655 -98.83007812 128.33618164 C-122.56071621 119.47557371 -144.86620371 100.74010143 -163.83007812 84.33618164 C-164.99603516 83.44092773 -164.99603516 83.44092773 -166.18554688 82.52758789 C-167.83007812 80.33618164 -167.83007812 80.33618164 -167.95898438 76.94165039 C-166.56615721 72.4932785 -164.3210035 70.42629177 -160.76757812 67.64868164 C-159.83026855 66.88394531 -159.83026855 66.88394531 -158.87402344 66.10375977 C-156.87740545 64.4902311 -154.85806535 62.91004754 -152.83007812 61.33618164 C-152.19021973 60.83393066 -151.55036133 60.33167969 -150.89111328 59.81420898 C-116.82377423 33.19394685 -78.51200761 11.86759295 -35.83007812 3.33618164 C-34.62254883 3.07506592 -33.41501953 2.8139502 -32.17089844 2.54492188 C-21.4167831 0.3331848 -10.95996857 -0.09902428 0 0 Z " fill="#0B0C0E" transform="translate(242.830078125,142.663818359375)"/>
<path d="M0 0 C20.02344808 7.36494642 38.22246652 22.21153042 55 35 C55.6909375 35.52335937 56.381875 36.04671875 57.09375 36.5859375 C58.95739533 38.01325317 60.79494169 39.46748295 62.625 40.9375 C63.64851562 41.75089844 64.67203125 42.56429687 65.7265625 43.40234375 C68.60714373 46.69372952 69.12272173 48.64583307 69 53 C67.39453125 55.34375 67.39453125 55.34375 64.8125 57.5 C63.80316406 58.345625 62.79382813 59.19125 61.75390625 60.0625 C60.50667639 61.04684849 59.25496612 62.02553384 58 63 C57.25862793 63.57878906 56.51725586 64.15757812 55.75341797 64.75390625 C2.22153624 106.25383965 -61.08140899 135.15090682 -130.265625 127.28125 C-132.47122104 126.97566684 -134.67462113 126.65362718 -136.875 126.3125 C-138.36894287 126.08977417 -138.36894287 126.08977417 -139.89306641 125.86254883 C-153.74959316 123.4343914 -164.0455544 114.76141048 -172.0390625 103.43359375 C-172.51472656 102.72396484 -172.51472656 102.72396484 -173 102 C-172.46375 102.17015625 -171.9275 102.3403125 -171.375 102.515625 C-163.32971906 105.00331055 -155.19253756 107.06593509 -147 109 C-145.89052505 109.26447182 -145.89052505 109.26447182 -144.75863647 109.5342865 C-132.77956143 112.33222456 -121.3701302 113.61714715 -109.07275391 113.46655273 C-106.49966848 113.43749626 -103.92865046 113.44603786 -101.35546875 113.45898438 C-84.16746099 113.43676039 -67.43390994 111.08389949 -51 106 C-49.83114258 105.64446045 -49.83114258 105.64446045 -48.63867188 105.28173828 C-12.87649006 94.28383179 20.63116368 75.42872016 49 51 C47.60782838 47.71074475 46.11645324 46.03369857 43.24609375 43.93359375 C42.48176025 43.37067627 41.71742676 42.80775879 40.92993164 42.2277832 C40.1074292 41.63698975 39.28492676 41.04619629 38.4375 40.4375 C37.59501709 39.82414795 36.75253418 39.2107959 35.88452148 38.57885742 C28.89487169 33.53676783 21.7275226 28.80695591 14.44140625 24.20703125 C13.83546631 23.81596191 13.22952637 23.42489258 12.60522461 23.02197266 C11.33400128 22.21264325 10.03458226 21.44762181 8.7265625 20.69921875 C5.96689551 17.98325689 5.04951265 14.61143433 3.8125 11 C3.55275391 10.27554688 3.29300781 9.55109375 3.02539062 8.8046875 C1.98172131 5.8813347 0.98157616 2.94472847 0 0 Z " fill="#0B0C0E" transform="translate(352,170)"/>
<path d="M0 0 C0.66 0.33 1.32 0.66 2 1 C1.65066406 2.07378906 1.30132812 3.14757812 0.94140625 4.25390625 C0.48147751 5.69001026 0.02185858 7.12621352 -0.4375 8.5625 C-0.66759766 9.26697266 -0.89769531 9.97144531 -1.13476562 10.69726562 C-8.52969927 33.95379608 -3.53577349 58.65843319 7 80 C11.26651591 87.98434463 16.76939808 94.47751403 23 101 C23.54011719 101.61488281 24.08023438 102.22976563 24.63671875 102.86328125 C34.24039898 113.38620543 48.69670848 120.44444954 62.0625 124.75 C62.71138184 124.96108398 63.36026367 125.17216797 64.02880859 125.38964844 C85.81483449 132.05515448 109.57245466 127.83776606 130 119 C131.49700465 118.17749663 132.97981877 117.32783709 134.4375 116.4375 C139.13443868 113.63188586 144.16256668 112.33814189 149.39648438 110.88793945 C155.51754188 109.18817095 161.41049192 107.09402491 167.33984375 104.8203125 C170 104 170 104 172 105 C150.92289011 127.46680945 123.96598384 141.91530978 92.74609375 143.28515625 C61.27872565 144.09046868 33.95764665 132.1203314 11.25 110.6875 C-9.02575919 89.47130671 -19.65206579 60.84080601 -19.34692383 31.69311523 C-18.80150645 12.1106382 -18.80150645 12.1106382 -14.30078125 7.11328125 C-12.24856715 5.77067359 -10.28249762 4.8878632 -8 4 C-6.53848953 3.21421416 -5.08001863 2.42274245 -3.625 1.625 C-2.42875 1.08875 -1.2325 0.5525 0 0 Z " fill="#0C0D0F" transform="translate(159,185)"/>
<path d="M0 0 C2.45033842 1.93148778 4.80682484 3.9352853 7.15234375 5.9921875 C7.88582031 6.58257812 8.61929688 7.17296875 9.375 7.78125 C28.95889368 24.01481266 42.75172508 50.7078936 45.15234375 75.9921875 C45.62769219 83.6741579 45.52041794 91.30863882 45.15234375 98.9921875 C45.11173828 100.16370361 45.11173828 100.16370361 45.0703125 101.35888672 C44.56548704 111.70079715 44.56548704 111.70079715 40.70068359 115.37060547 C35.8060187 118.98719587 30.15153128 121.819414 24.15234375 122.9921875 C24.58546875 121.8165625 25.01859375 120.6409375 25.46484375 119.4296875 C28.90608446 108.84377561 30.42466487 98.76812465 30.46484375 87.6796875 C30.4702417 86.77323486 30.47563965 85.86678223 30.48120117 84.93286133 C30.22413972 60.404728 18.85420986 38.33660709 2.33984375 20.7421875 C-6.08821513 12.70415952 -16.24855694 6.68689725 -26.84765625 1.9921875 C-27.69328125 1.61320312 -28.53890625 1.23421875 -29.41015625 0.84375 C-51.9672914 -8.30289322 -77.56044336 -6.72075368 -99.83398438 2.13037109 C-102.84494198 3.41900838 -105.71031705 4.94930838 -108.59765625 6.4921875 C-116.0614997 10.405943 -123.84498544 12.48352881 -131.96484375 14.6328125 C-136.3874697 15.81380517 -140.59043491 17.31300507 -144.84765625 18.9921875 C-139.57726762 5.5127693 -119.4009059 -5.28614266 -106.84765625 -10.8828125 C-99.3905205 -14.0655582 -91.74852431 -16.21784726 -83.84765625 -18.0078125 C-83.09033203 -18.1836084 -82.33300781 -18.3594043 -81.55273438 -18.54052734 C-53.40242758 -23.403315 -23.25342829 -16.39542132 0 0 Z " fill="#0C0D0F" transform="translate(310.84765625,132.0078125)"/>
<path d="M0 0 C5.94 0 11.88 0 18 0 C21.96 12.87 25.92 25.74 30 39 C30.33 26.13 30.66 13.26 31 0 C34.96 0 38.92 0 43 0 C43 23.1 43 46.2 43 70 C38.38 70 33.76 70 29 70 C25.23435773 62.32924723 22.98848838 54.43874269 20.65429688 46.25488281 C19.5912919 42.59148207 18.45555342 38.95158272 17.3125 35.3125 C17.11019775 34.66595459 16.90789551 34.01940918 16.69946289 33.35327148 C15.50538878 29.55421603 14.25955599 25.77866796 13 22 C12.67 37.84 12.34 53.68 12 70 C8.04 70 4.08 70 0 70 C0 46.9 0 23.8 0 0 Z " fill="#08090B" transform="translate(109,376)"/>
<path d="M0 0 C4.62 0 9.24 0 14 0 C14 23.76 14 47.52 14 72 C9.38 72 4.76 72 0 72 C0 61.11 0 50.22 0 39 C-4.95 39 -9.9 39 -15 39 C-15 49.56 -15 60.12 -15 71 C-19.29 71 -23.58 71 -28 71 C-28 47.9 -28 24.8 -28 1 C-23.71 1 -19.42 1 -15 1 C-15 10.57 -15 20.14 -15 30 C-10.05 30 -5.1 30 0 30 C0 20.1 0 10.2 0 0 Z " fill="#090A0C" transform="translate(348,375)"/>
<path d="M0 0 C0.83015625 -0.03738281 1.6603125 -0.07476562 2.515625 -0.11328125 C8.84679931 -0.20259249 13.04808164 1.21938927 17.875 5.375 C22.34995292 10.74670183 21.07694108 16.71094433 20.875 23.375 C16.585 23.375 12.295 23.375 7.875 23.375 C7.545 19.415 7.215 15.455 6.875 11.375 C4.461875 11.313125 4.461875 11.313125 2 11.25 C1.09507812 11.22679687 0.19015625 11.20359375 -0.7421875 11.1796875 C-3.31306994 11.13175164 -3.31306994 11.13175164 -5.125 13.375 C-5.43031902 15.42087675 -5.43031902 15.42087675 -5.38378906 17.79296875 C-5.39009338 18.70731689 -5.39639771 19.62166504 -5.40289307 20.5637207 C-5.3988446 21.55331787 -5.39479614 22.54291504 -5.390625 23.5625 C-5.39349518 25.08266724 -5.39349518 25.08266724 -5.39642334 26.63354492 C-5.39778591 28.77881112 -5.39408447 30.92408553 -5.38574219 33.06933594 C-5.37504382 36.36151572 -5.38563519 39.65314978 -5.3984375 42.9453125 C-5.39711592 45.02604288 -5.39455355 47.10677291 -5.390625 49.1875 C-5.39467346 50.17709717 -5.39872192 51.16669434 -5.40289307 52.1862793 C-5.39658875 53.10062744 -5.39028442 54.01497559 -5.38378906 54.95703125 C-5.38219788 55.76374268 -5.38060669 56.5704541 -5.37896729 57.40161133 C-5.2993125 59.60806436 -5.2993125 59.60806436 -3.125 61.375 C0.175 61.375 3.475 61.375 6.875 61.375 C7.205 54.775 7.535 48.175 7.875 41.375 C5.895 41.375 3.915 41.375 1.875 41.375 C1.875 38.405 1.875 35.435 1.875 32.375 C8.145 32.375 14.415 32.375 20.875 32.375 C20.98330443 36.87565073 21.06248158 41.37367357 21.125 45.875 C21.17527344 47.77765625 21.17527344 47.77765625 21.2265625 49.71875 C21.36621051 63.12495857 21.36621051 63.12495857 16.875 68.375 C12.21625429 72.50027307 7.39257795 72.97935592 1.375 72.8125 C0.65441406 72.81958984 -0.06617188 72.82667969 -0.80859375 72.83398438 C-5.93175478 72.77376639 -9.57649496 71.74912559 -14.125 69.375 C-18.11254549 65.17191151 -20.36158602 61.44694143 -20.41552734 55.62573242 C-20.42828705 54.68763229 -20.44104675 53.74953217 -20.45419312 52.78300476 C-20.45641876 51.77566788 -20.45864441 50.76833099 -20.4609375 49.73046875 C-20.4675943 48.6873201 -20.4742511 47.64417145 -20.48110962 46.56941223 C-20.49123061 44.36294313 -20.49592681 42.15644346 -20.49560547 39.94995117 C-20.49997048 36.585257 -20.53627462 33.22188332 -20.57421875 29.85742188 C-20.58008873 27.71094197 -20.58405691 25.56445586 -20.5859375 23.41796875 C-20.60030853 22.41670456 -20.61467957 21.41544037 -20.62948608 20.38383484 C-20.58904541 14.15626868 -19.79319228 10.45703588 -16.125 5.375 C-10.63856514 0.41108275 -7.12456256 0.11838397 0 0 Z " fill="#0B0B0D" transform="translate(280.125,374.625)"/>
<path d="M0 0 C0.75369873 0.00757324 1.50739746 0.01514648 2.28393555 0.02294922 C9.54431612 0.23868984 13.9429215 1.62131758 19.125 7.0625 C21.20980957 11.75332153 20.90110858 15.32949122 20.625 20.4375 C16.335 20.4375 12.045 20.4375 7.625 20.4375 C7.295 17.4675 6.965 14.4975 6.625 11.4375 C5.00036158 11.38354522 3.37521459 11.34472805 1.75 11.3125 C0.84507812 11.28929687 -0.05984375 11.26609375 -0.9921875 11.2421875 C-3.56306994 11.19425164 -3.56306994 11.19425164 -5.375 13.4375 C-5.87493313 17.10367627 -5.56544129 19.06455248 -3.875 22.375 C-0.12701151 26.9662859 4.19481515 30.65536445 8.96875 34.15625 C14.03520144 37.87164772 18.63095908 41.282816 20.625 47.4375 C21.39137622 53.80115968 21.93697423 59.80072049 19.02734375 65.6484375 C15.66891291 69.54749379 12.45405328 71.97019279 7.37841797 72.80859375 C4.92579498 72.97347597 2.51987412 72.98382913 0.0625 72.9375 C-1.1740332 72.96070313 -1.1740332 72.96070313 -2.43554688 72.984375 C-7.89967996 72.9494325 -11.04309902 72.04190616 -15.375 68.4375 C-18.98805616 64.53920257 -19.61174729 61.72442955 -19.625 56.5625 C-19.5425 54.87125 -19.46 53.18 -19.375 51.4375 C-15.415 51.4375 -11.455 51.4375 -7.375 51.4375 C-6.88671875 53.74869792 -6.3984375 56.05989583 -5.91015625 58.37109375 C-5.56747006 60.41411204 -5.56747006 60.41411204 -4.375 61.4375 C-2.30835994 61.67540731 -2.30835994 61.67540731 0.0625 61.6875 C0.86558594 61.71328125 1.66867188 61.7390625 2.49609375 61.765625 C3.19863281 61.65734375 3.90117187 61.5490625 4.625 61.4375 C6.98120437 57.90319344 7.11491613 56.60178713 6.625 52.4375 C3.78276514 46.87145674 -0.66110122 43.36574898 -5.375 39.4375 C-18.84805941 27.81942703 -18.84805941 27.81942703 -19.74609375 20.3515625 C-19.86895742 14.26619698 -19.9262788 9.68845953 -16.0546875 4.8046875 C-10.96509629 0.66199698 -6.31552451 -0.08799691 0 0 Z " fill="#0A0B0D" transform="translate(189.375,374.5625)"/>
<path d="M0 0 C13.86 0 27.72 0 42 0 C42 2.97 42 5.94 42 9 C37.38 9 32.76 9 28 9 C28 29.13 28 49.26 28 70 C23.71 70 19.42 70 15 70 C15 49.87 15 29.74 15 9 C10.05 9 5.1 9 0 9 C0 6.03 0 3.06 0 0 Z " fill="#060708" transform="translate(378,376)"/>
<path d="M0 0 C4.62 0 9.24 0 14 0 C14 23.76 14 47.52 14 72 C9.38 72 4.76 72 0 72 C0 48.24 0 24.48 0 0 Z " fill="#0E0F11" transform="translate(75,375)"/>
<path d="M0 0 C4.29 0 8.58 0 13 0 C13 23.1 13 46.2 13 70 C8.71 70 4.42 70 0 70 C0 46.9 0 23.8 0 0 Z " fill="#050608" transform="translate(228,376)"/>
<path d="M0 0 C4.54247698 -0.70976203 7.37257522 0.93516932 11.0703125 3.32202148 C14.47446163 6.28213244 15.61456219 9.99437542 17 14.1875 C17.29777344 15.00669922 17.59554687 15.82589844 17.90234375 16.66992188 C20 22.54239271 20 22.54239271 20 25 C15.76251805 23.4430464 11.90335568 21.36859546 8 19.125 C7.39671875 18.78597656 6.7934375 18.44695312 6.171875 18.09765625 C2.51168031 16.00497972 -0.78024729 13.71971536 -4 11 C-3.34 11 -2.68 11 -2 11 C-1.87625 10.21625 -1.7525 9.4325 -1.625 8.625 C-1 6 -1 6 1 4 C0.6814823 1.89179203 0.6814823 1.89179203 0 0 Z " fill="#101113" transform="translate(124,246)"/>
<path d="M0 0 C0.53625 0.17015625 1.0725 0.3403125 1.625 0.515625 C7.85173473 2.44099692 14.12225747 4.06290678 20.46484375 5.55371094 C23.97070533 6.3993028 26.73998926 7.36999463 30 9 C25.05 11.475 25.05 11.475 20 14 C20 14.66 20 15.32 20 16 C18.3046875 16.74609375 18.3046875 16.74609375 16 17 C9.49830613 12.63335082 4.33324109 6.46463203 0 0 Z " fill="#141516" transform="translate(179,272)"/>
<path d="M0 0 C4.70689655 2.4137931 4.70689655 2.4137931 6 5 C6 7 6 7 4.8125 8.6875 C3 10 3 10 0.9375 10.4375 C0.298125 10.623125 -0.34125 10.80875 -1 11 C-1.66 12.32 -2.32 13.64 -3 15 C-5.64 13.35 -8.28 11.7 -11 10 C-10.01 9.01 -9.02 8.02 -8 7 C-6.68 7 -5.36 7 -4 7 C-3.8453125 5.824375 -3.8453125 5.824375 -3.6875 4.625 C-3 2 -3 2 0 0 Z " fill="#161719" transform="translate(383,188)"/>
<path d="M0 0 C4.21912747 0.4794463 6.79663178 1.16625119 10 4 C8.8125 5.5 8.8125 5.5 7 7 C4.3125 7.1875 4.3125 7.1875 2 7 C2 8.32 2 9.64 2 11 C-1.3 10.67 -4.6 10.34 -8 10 C-8.66 8.35 -9.32 6.7 -10 5 C-6.7 5 -3.4 5 0 5 C0 3.35 0 1.7 0 0 Z " fill="#18191B" transform="translate(195,375)"/>
<path d="M0 0 C0.33 0 0.66 0 1 0 C1 22.44 1 44.88 1 68 C0.67 68 0.34 68 0 68 C-0.029729 66.53191895 -0.029729 66.53191895 -0.06005859 65.03417969 C-0.13624624 61.39606403 -0.22494295 57.75834147 -0.31738281 54.12060547 C-0.35561829 52.54744235 -0.39048066 50.97419342 -0.421875 49.40087891 C-0.46764422 47.13673277 -0.52561761 44.87317453 -0.5859375 42.609375 C-0.59748871 41.90818542 -0.60903992 41.20699585 -0.62094116 40.48455811 C-0.73295064 36.76184662 -1.21932025 34.24360412 -3 31 C-3 29.68 -3 28.36 -3 27 C-2.01 27 -1.02 27 0 27 C0 18.09 0 9.18 0 0 Z " fill="#191A1C" transform="translate(361,377)"/>
<path d="M0 0 C4.12751449 0.60698743 7.3321148 2.03810791 11 4 C11 4.66 11 5.32 11 6 C9.35 6.33 7.7 6.66 6 7 C5.67 8.65 5.34 10.3 5 12 C4.67 12 4.34 12 4 12 C3.67 13.98 3.34 15.96 3 18 C2.67 18 2.34 18 2 18 C1.95101563 17.14535156 1.90203125 16.29070312 1.8515625 15.41015625 C1.77679688 14.30542969 1.70203125 13.20070313 1.625 12.0625 C1.55539062 10.96035156 1.48578125 9.85820312 1.4140625 8.72265625 C1.27742188 7.82417969 1.14078125 6.92570312 1 6 C0.34 5.67 -0.32 5.34 -1 5 C-0.67 3.35 -0.34 1.7 0 0 Z " fill="#1B1C1E" transform="translate(286,380)"/>
<path d="M0 0 C3.81684226 1.55500981 6.19195732 4.03595495 9 7 C8.34 8.65 7.68 10.3 7 12 C4.69 11.67 2.38 11.34 0 11 C0 7.33333333 0 3.66666667 0 0 Z " fill="#101113" transform="translate(176,389)"/>
<path d="M0 0 C0.99 0 1.98 0 3 0 C2.67 0.66 2.34 1.32 2 2 C0.71891481 5.84325557 0.93262204 8.95732222 1 13 C0 14 0 14 -3 14.125 C-6 14 -6 14 -7 13 C-7.1875 10.5625 -7.1875 10.5625 -7 8 C-6.34 7.34 -5.68 6.68 -5 6 C-3.68 6 -2.36 6 -1 6 C-0.67 4.02 -0.34 2.04 0 0 Z " fill="#111214" transform="translate(240,233)"/>
<path d="M0 0 C3.3 0 6.6 0 10 0 C10.66 1.32 11.32 2.64 12 4 C13.65 4 15.3 4 17 4 C17 4.33 17 4.66 17 5 C12.71 5.66 8.42 6.32 4 7 C0 2 0 2 0 0 Z " fill="#131416" transform="translate(277,288)"/>
<path d="M0 0 C0.66 0.66 1.32 1.32 2 2 C1.34 2.66 0.68 3.32 0 4 C0.969375 3.979375 1.93875 3.95875 2.9375 3.9375 C6 4 6 4 7 5 C6.71269945 7.33944736 6.38063221 9.6739143 6 12 C2.75777151 11.13540574 0.49887323 10.48278055 -1.9375 8.125 C-3 6 -3 6 -2.8125 3.875 C-2 2 -2 2 0 0 Z " fill="#161719" transform="translate(224,246)"/>
<path d="M0 0 C4.12751449 0.60698743 7.3321148 2.03810791 11 4 C10.67 4.99 10.34 5.98 10 7 C8.68 7 7.36 7 6 7 C5.67 7.66 5.34 8.32 5 9 C4.01 9 3.02 9 2 9 C0.4375 6.1875 0.4375 6.1875 -1 3 C-0.67 2.01 -0.34 1.02 0 0 Z " fill="#131416" transform="translate(255,116)"/>
<path d="M0 0 C0.33 0 0.66 0 1 0 C1 1.65 1 3.3 1 5 C2.98 5 4.96 5 7 5 C6.67 5.66 6.34 6.32 6 7 C3.9375 7.625 3.9375 7.625 2 8 C2 8.99 2 9.98 2 11 C-1.82352106 9.4422692 -4.29205593 7.08404742 -7 4 C-7 3.01 -7 2.02 -7 1 C-3.125 2.875 -3.125 2.875 -2 4 C-1.34 2.68 -0.68 1.36 0 0 Z " fill="#131416" transform="translate(248,226)"/>
<path d="M0 0 C5.36716665 -0.83861979 8.79627239 2.07929595 13 5 C11.02 5.99 11.02 5.99 9 7 C9 7.66 9 8.32 9 9 C5.0873016 7.6957672 2.62689759 6.21065261 0 3 C0 2.01 0 1.02 0 0 Z " fill="#171819" transform="translate(124,246)"/>
<path d="M0 0 C5.75 0.875 5.75 0.875 8 2 C7.67 3.32 7.34 4.64 7 6 C6.34 6 5.68 6 5 6 C5 6.66 5 7.32 5 8 C6.65 7.34 8.3 6.68 10 6 C9.34 7.32 8.68 8.64 8 10 C3.25 9.25 3.25 9.25 1 7 C1.375 3.875 1.375 3.875 2 1 C1.34 0.67 0.68 0.34 0 0 Z " fill="#151618" transform="translate(286,280)"/>
<path d="M0 0 C0.33 0 0.66 0 1 0 C1 1.98 1 3.96 1 6 C0.01 6.495 0.01 6.495 -1 7 C-0.34 7.66 0.32 8.32 1 9 C0.67 9.99 0.34 10.98 0 12 C-5.78461538 8.55384615 -5.78461538 8.55384615 -6.875 5.75 C-6.91625 5.1725 -6.9575 4.595 -7 4 C-4.50907189 2.75453595 -3.58919267 3.2232422 -1 4 C-0.67 2.68 -0.34 1.36 0 0 Z " fill="#131416" transform="translate(239,430)"/>
<path d="M0 0 C2.375 0.25 2.375 0.25 5 1 C6.125 2.9375 6.125 2.9375 7 5 C7.99 5.66 8.98 6.32 10 7 C8.02 7.99 8.02 7.99 6 9 C1.3125 5.484375 1.3125 5.484375 0 4 C0 2.68 0 1.36 0 0 Z M-2 3 C-1.34 3.66 -0.68 4.32 0 5 C-0.99 5 -1.98 5 -3 5 C-2.67 4.34 -2.34 3.68 -2 3 Z " fill="#141517" transform="translate(319,151)"/>
<path d="M0 0 C2.475 0.495 2.475 0.495 5 1 C5.33 2.65 5.66 4.3 6 6 C6.99 6 7.98 6 9 6 C8.67 6.99 8.34 7.98 8 9 C5.33333333 7.66666667 2.66666667 6.33333333 0 5 C0 3.35 0 1.7 0 0 Z " fill="#131416" transform="translate(227,243)"/>
<path d="M0 0 C0.99 0.33 1.98 0.66 3 1 C2.01 2.485 2.01 2.485 1 4 C1.78375 3.95875 2.5675 3.9175 3.375 3.875 C6 4 6 4 8 6 C8 6.99 8 7.98 8 9 C0.125 8.125 0.125 8.125 -1 7 C-0.71269945 4.66055264 -0.38063221 2.3260857 0 0 Z " fill="#131416" transform="translate(229,436)"/>
<path d="M0 0 C3.81684226 1.55500981 6.19195732 4.03595495 9 7 C8.67 7.66 8.34 8.32 8 9 C7.4225 8.67 6.845 8.34 6.25 8 C3.80116138 6.72924102 3.80116138 6.72924102 0 7 C-0.38133299 5.0085944 -0.71325582 3.00720923 -1 1 C-0.67 0.67 -0.34 0.34 0 0 Z " fill="#161719" transform="translate(176,389)"/>
<path d="M0 0 C3.36720387 1.39332574 4.9859524 2.9789286 7 6 C6 7 6 7 3.5625 7.1875 C1 7 1 7 -1 5 C-0.625 2.375 -0.625 2.375 0 0 Z " fill="#151618" transform="translate(326,148)"/>
<path d="M0 0 C1.69141656 0.08963062 3.37959602 0.24577676 5.0625 0.4375 C6.44115234 0.59025391 6.44115234 0.59025391 7.84765625 0.74609375 C8.55792969 0.82988281 9.26820313 0.91367188 10 1 C8.375 3.0625 8.375 3.0625 6 5 C2.75 4.75 2.75 4.75 0 4 C-0.33 3.01 -0.66 2.02 -1 1 C-0.67 0.67 -0.34 0.34 0 0 Z " fill="#17181A" transform="translate(263,114)"/>
<path d="M0 0 C0.66 0 1.32 0 2 0 C1.814375 0.721875 1.62875 1.44375 1.4375 2.1875 C0.98004693 5.12826973 1.26483643 7.14103058 2 10 C0.02 9.01 -1.96 8.02 -4 7 C-3.34 6.67 -2.68 6.34 -2 6 C-1.62690101 4.34178227 -1.29299023 2.67422986 -1 1 C-0.67 0.67 -0.34 0.34 0 0 Z " fill="#1A1B1D" transform="translate(124,251)"/>
<path d="M0 0 C1.67542976 0.28604898 3.34385343 0.61781233 5 1 C4.34 2.32 3.68 3.64 3 5 C1.35 5 -0.3 5 -2 5 C-1.125 1.125 -1.125 1.125 0 0 Z " fill="#131416" transform="translate(387,379)"/>
<path d="M0 0 C4.455 0.99 4.455 0.99 9 2 C9 2.33 9 2.66 9 3 C5.04 3.66 1.08 4.32 -3 5 C-2.01 3.35 -1.02 1.7 0 0 Z " fill="#1D1E20" transform="translate(285,290)"/>
<path d="M0 0 C-0.33 1.65 -0.66 3.3 -1 5 C-2.32 5.33 -3.64 5.66 -5 6 C-5 5.34 -5 4.68 -5 4 C-4.34 4 -3.68 4 -3 4 C-3 3.34 -3 2.68 -3 2 C-3.66 1.67 -4.32 1.34 -5 1 C-3 0 -3 0 0 0 Z " fill="#202123" transform="translate(304,276)"/>
<path d="M0 0 C1.32 1.32 2.64 2.64 4 4 C3.34 4.66 2.68 5.32 2 6 C-0.125 5.625 -0.125 5.625 -2 5 C-1.34 3.35 -0.68 1.7 0 0 Z " fill="#07080A" transform="translate(126,251)"/>
<path d="M0 0 C1.98 0.66 3.96 1.32 6 2 C6 2.66 6 3.32 6 4 C4.35 4.33 2.7 4.66 1 5 C0.34 3.68 -0.32 2.36 -1 1 C-0.67 0.67 -0.34 0.34 0 0 Z " fill="#1B1C1E" transform="translate(173,400)"/>
<path d="M0 0 C3.465 1.485 3.465 1.485 7 3 C7 3.66 7 4.32 7 5 C5.68 5.33 4.36 5.66 3 6 C1.68 4.35 0.36 2.7 -1 1 C-0.67 0.67 -0.34 0.34 0 0 Z " fill="#1C1D1F" transform="translate(192,283)"/>
<path d="M0 0 C0.99 0 1.98 0 3 0 C3 2.64 3 5.28 3 8 C0.37613513 4.93882432 0 4.26826873 0 0 Z " fill="#121315" transform="translate(358,404)"/>
<path d="M0 0 C4.875 2.625 4.875 2.625 6 6 C3.13275314 5.42655063 2.1385485 5.1385485 0 3 C0 2.01 0 1.02 0 0 Z " fill="#212224" transform="translate(293,377)"/>
<path d="M0 0 C0.66 0.33 1.32 0.66 2 1 C2.625 3.5625 2.625 3.5625 3 6 C2.01 6.66 1.02 7.32 0 8 C-1.43088528 5.13822943 -0.59991697 3.06624227 0 0 Z " fill="#1C1C1E" transform="translate(283,200)"/>
</svg>
